<?xml version="1.0" standalone="no"?>
<!DOCTYPE svg PUBLIC "-//W3C//DTD SVG 20010904//EN"
 "http://www.w3.org/TR/2001/REC-SVG-20010904/DTD/svg10.dtd">
<svg version="1.0" xmlns="http://www.w3.org/2000/svg"
 width="32.000000pt" height="32.000000pt" viewBox="0 0 32.000000 32.000000"
 preserveAspectRatio="xMidYMid meet">

<g transform="translate(0.000000,32.000000) scale(0.100000,-0.100000)"
fill="#000000" stroke="none">
<path d="M0 160 l0 -160 160 0 160 0 0 160 0 160 -160 0 -160 0 0 -160z m55
130 c-3 -5 -10 -10 -16 -10 -5 0 -9 5 -9 10 0 6 7 10 16 10 8 0 12 -4 9 -10z
m85 6 c0 -3 -4 -8 -10 -11 -5 -3 -10 -1 -10 4 0 6 5 11 10 11 6 0 10 -2 10 -4z
m158 -7 c-2 -6 -8 -10 -13 -10 -5 0 -11 4 -13 10 -2 6 4 11 13 11 9 0 15 -5
13 -11z m-218 -40 c0 -5 -11 -9 -25 -9 -14 0 -25 4 -25 9 0 5 11 9 25 9 14 0
25 -4 25 -9z m190 -19 c0 -29 -2 -30 -45 -30 -43 0 -45 1 -45 28 0 26 3 28 45
31 44 2 45 1 45 -29z m-108 -7 c10 -40 -17 -58 -42 -28 -12 15 -4 21 23 16 5
-1 6 3 2 9 -3 6 -11 8 -16 5 -5 -4 -9 -1 -9 4 0 18 37 12 42 -6z m138 -34 c0
-11 -4 -17 -10 -14 -5 3 -10 13 -10 21 0 8 5 14 10 14 6 0 10 -9 10 -21z
m-220 -13 c0 -3 -4 -8 -10 -11 -5 -3 -10 -1 -10 4 0 6 5 11 10 11 6 0 10 -2
10 -4z m59 -22 c3 -16 1 -17 -13 -5 -19 16 -21 34 -3 29 6 -3 14 -13 16 -24z
m151 -13 c0 -5 -6 -12 -12 -14 -10 -4 -10 -8 1 -15 21 -15 3 -32 -35 -32 -32
0 -34 2 -34 35 0 34 1 35 40 35 22 0 40 -4 40 -9z m-230 -16 c0 -8 -7 -15 -15
-15 -26 0 -18 20 13 29 1 1 2 -6 2 -14z m155 -55 c13 0 27 -4 30 -10 3 -6 -4
-10 -17 -10 -18 0 -20 -2 -8 -10 12 -8 10 -10 -10 -9 -14 0 -34 4 -45 9 -19 8
-18 11 8 14 6 1 11 10 10 21 -1 11 0 14 3 8 3 -7 16 -13 29 -13z m-115 -30 c0
-13 -11 -13 -30 0 -12 8 -11 10 8 10 12 0 22 -4 22 -10z"/>
</g>
</svg>
